<svg xmlns="http://www.w3.org/2000/svg" width="44" height="44" viewBox="0 0 44 44" ><path opacity=".5" fill="#000" fill-rule="evenodd" clip-rule="evenodd" d="M31 38.7c6-3.2 10-9.5 10-16.7 0-10.5-8.5-19-19-19v-3c12.1 0 22 9.9 22 22 0 8.1-4.4 15.2-10.9 19h3.9c.5 0 1 .4 1 1v1c0 .6-.4 1-1 1h-8c-.3 0-.5-.1-.7-.3-.2-.2-.3-.4-.3-.7v-8c0-.5.4-1 1-1h1c.6 0 1 .4 1 1v3.7zm-18-33.4c-6 3.2-10 9.5-10 16.7 0 10.5 8.5 19 19 19v3c-12.1 0-22-9.9-22-22 0-8.1 4.4-15.2 10.9-19h-4.9c-.5 0-1-.4-1-1v-1c0-.6.4-1 1-1h9c.6 0 1 .4 1 1v8c0 .5-.4 1-1 1h-1c-.6 0-1-.4-1-1v-3.7z"/></svg>
